<svg style="max-height: 500px" xmlns="http://www.w3.org/2000/svg" viewBox="33.4575 127.39967999999999 844.7257606490871 760.6944" fill="none" width="844.7257606490871" height="760.6944">
  <g clip-path="url(#clip0)">
    <rect width="900" height="900" fill="#121417"/>

    
    <g filter="url(#filter0)">
      <ellipse cx="-28" cy="1104.5" rx="305" ry="307.5" fill="#00C583"/>
    </g>

    
    <g transform="translate(-50, 150) scale(12)">
      <path fill="url(#leafGradient)" d="M3.707,21.707,6.674,18.74a7.533,7.533,0,0,0,4.2,1.23,8.886,8.886,0,0,0,6.332-2.763C21.019,13.4,21.958,3.51,22,3.09a1,1,0,0,0-.289-.8,1.013,1.013,0,0,0-.8-.289,45.808,45.808,0,0,0-5.7.961,1,1,0,0,0-.714.64l-.649,1.834-.539-1.085a1,1,0,0,0-1.219-.5,13.782,13.782,0,0,0-5.295,2.94C3.224,10.362,3.579,14.857,5.26,17.326L2.293,20.293a1,1,0,0,0,1.414,1.414Zm4.5-13.5a10.7,10.7,0,0,1,3.705-2.164l1.192,2.4A.98.98,0,0,0,14.061,9a1,1,0,0,0,.881-.665L16.2,4.791c1.445-.318,2.758-.525,3.66-.647-.367,2.694-1.48,9.066-4.063,11.649-2.788,2.788-5.945,2.457-7.668,1.5l4.582-4.582a1,1,0,0,0-1.414-1.414L6.711,15.875C5.751,14.151,5.42,11,8.207,8.207Z"/>
    </g>

    
    <g filter="url(#filter1)">
      <ellipse cx="-25" cy="1052.5" rx="186" ry="192.5" fill="url(#paint1_linear)"/>
    </g>
  </g>

  <defs>
    <filter id="filter0" x="-1133" y="-3" width="2210" height="2215" filterUnits="userSpaceOnUse">
      <feFlood flood-opacity="0" result="BackgroundImageFix"/>
      <feBlend in="SourceGraphic" in2="BackgroundImageFix" result="shape"/>
      <feGaussianBlur stdDeviation="400"/>
    </filter>

    <filter id="filter1" x="-511" y="560" width="972" height="985" filterUnits="userSpaceOnUse">
      <feFlood flood-opacity="0" result="BackgroundImageFix"/>
      <feBlend in="SourceGraphic" in2="BackgroundImageFix" result="shape"/>
      <feGaussianBlur stdDeviation="150"/>
    </filter>

    <linearGradient id="paint1_linear" x1="-16.8" y1="898.4" x2="-358.1" y2="1132.5" gradientUnits="userSpaceOnUse">
      <stop stop-color="#00C584"/>
      <stop offset="1" stop-color="#6DF268"/>
    </linearGradient>

    <linearGradient id="leafGradient" x1="0" y1="0" x2="24" y2="24" gradientUnits="userSpaceOnUse">
      <stop stop-color="#00C583"/>
      <stop offset="1" stop-color="#005F3F"/>
    </linearGradient>

    <clipPath id="clip0">
      <rect width="900" height="900" fill="white"/>
    </clipPath>
  </defs>
</svg>